<svg xmlns="http://www.w3.org/2000/svg" xmlns:xlink="http://www.w3.org/1999/xlink" contentStyleType="text/css" data-diagram-type="CLASS" height="628px" preserveAspectRatio="none" style="width:2312px;height:628px;background:#777777;" version="1.1" viewBox="0 0 2312 628" width="2312px" zoomAndPan="magnify"><defs/><g><rect fill="#777777" height="628" style="stroke:none;stroke-width:1;" width="2312" x="0" y="0"/><!--cluster Lab1--><g class="cluster" data-entity="Lab1" data-source-line="6" data-uid="ent0003" id="cluster_Lab1"><path d="M8.5,6.602 L42.7359,6.602 A3.75,3.75 0 0 1 45.2359,9.102 L52.2359,31.6699 L2302.5,31.6699 A2.5,2.5 0 0 1 2305,34.1699 L2305,619.102 A2.5,2.5 0 0 1 2302.5,621.602 L8.5,621.602 A2.5,2.5 0 0 1 6,619.102 L6,9.102 A2.5,2.5 0 0 1 8.5,6.602" fill="none" style="stroke:#000000;stroke-width:1.5;"/><line style="stroke:#000000;stroke-width:1.5;" x1="6" x2="52.2359" y1="31.6699" y2="31.6699"/><text fill="#000000" font-family="sans-serif" font-size="14" font-weight="bold" lengthAdjust="spacing" textLength="33.2359" x="10" y="23.5679">Lab1</text></g><!--cluster Core--><g class="cluster" data-entity="Core" data-source-line="6" data-uid="ent0004" id="cluster_Core"><path d="M32.5,52.602 L65.7139,52.602 A3.75,3.75 0 0 1 68.2139,55.102 L75.2139,77.6699 L2278.5,77.6699 A2.5,2.5 0 0 1 2281,80.1699 L2281,595.102 A2.5,2.5 0 0 1 2278.5,597.602 L32.5,597.602 A2.5,2.5 0 0 1 30,595.102 L30,55.102 A2.5,2.5 0 0 1 32.5,52.602" fill="none" style="stroke:#000000;stroke-width:1.5;"/><line style="stroke:#000000;stroke-width:1.5;" x1="30" x2="75.2139" y1="77.6699" y2="77.6699"/><text fill="#000000" font-family="sans-serif" font-size="14" font-weight="bold" lengthAdjust="spacing" textLength="32.2139" x="34" y="69.5679">Core</text></g><!--cluster Helpers--><g class="cluster" data-entity="Helpers" data-source-line="6" data-uid="ent0005" id="cluster_Helpers"><path d="M1271.5,130.602 L1326.2038,130.602 A3.75,3.75 0 0 1 1328.7038,133.102 L1335.7038,155.6699 L2254.5,155.6699 A2.5,2.5 0 0 1 2257,158.1699 L2257,265.102 A2.5,2.5 0 0 1 2254.5,267.602 L1271.5,267.602 A2.5,2.5 0 0 1 1269,265.102 L1269,133.102 A2.5,2.5 0 0 1 1271.5,130.602" fill="none" style="stroke:#000000;stroke-width:1.5;"/><line style="stroke:#000000;stroke-width:1.5;" x1="1269" x2="1335.7038" y1="155.6699" y2="155.6699"/><text fill="#000000" font-family="sans-serif" font-size="14" font-weight="bold" lengthAdjust="spacing" textLength="53.7038" x="1273" y="147.5679">Helpers</text></g><!--cluster Interfaces--><g class="cluster" data-entity="Interfaces" data-source-line="6" data-uid="ent0008" id="cluster_Interfaces"><path d="M330.5,106.102 L403.1517,106.102 A3.75,3.75 0 0 1 405.6517,108.602 L412.6517,131.1699 L1242.5,131.1699 A2.5,2.5 0 0 1 1245,133.6699 L1245,425.102 A2.5,2.5 0 0 1 1242.5,427.602 L330.5,427.602 A2.5,2.5 0 0 1 328,425.102 L328,108.602 A2.5,2.5 0 0 1 330.5,106.102" fill="none" style="stroke:#000000;stroke-width:1.5;"/><line style="stroke:#000000;stroke-width:1.5;" x1="328" x2="412.6517" y1="131.1699" y2="131.1699"/><text fill="#000000" font-family="sans-serif" font-size="14" font-weight="bold" lengthAdjust="spacing" textLength="71.6517" x="332" y="123.0679">Interfaces</text></g><!--cluster Models--><g class="cluster" data-entity="Models" data-source-line="6" data-uid="ent0014" id="cluster_Models"><path d="M56.5,98.602 L107.7318,98.602 A3.75,3.75 0 0 1 110.2318,101.102 L117.2318,123.6699 L301.5,123.6699 A2.5,2.5 0 0 1 304,126.1699 L304,297.102 A2.5,2.5 0 0 1 301.5,299.602 L56.5,299.602 A2.5,2.5 0 0 1 54,297.102 L54,101.102 A2.5,2.5 0 0 1 56.5,98.602" fill="none" style="stroke:#000000;stroke-width:1.5;"/><line style="stroke:#000000;stroke-width:1.5;" x1="54" x2="117.2318" y1="123.6699" y2="123.6699"/><text fill="#000000" font-family="sans-serif" font-size="14" font-weight="bold" lengthAdjust="spacing" textLength="50.2318" x="58" y="115.5679">Models</text></g><!--cluster Movements--><g class="cluster" data-entity="Movements" data-source-line="6" data-uid="ent0016" id="cluster_Movements"><path d="M421.5,451.602 L504.8617,451.602 A3.75,3.75 0 0 1 507.3617,454.102 L514.3617,476.6699 L642.5,476.6699 A2.5,2.5 0 0 1 645,479.1699 L645,571.102 A2.5,2.5 0 0 1 642.5,573.602 L421.5,573.602 A2.5,2.5 0 0 1 419,571.102 L419,454.102 A2.5,2.5 0 0 1 421.5,451.602" fill="none" style="stroke:#000000;stroke-width:1.5;"/><line style="stroke:#000000;stroke-width:1.5;" x1="419" x2="514.3617" y1="476.6699" y2="476.6699"/><text fill="#000000" font-family="sans-serif" font-size="14" font-weight="bold" lengthAdjust="spacing" textLength="82.3617" x="423" y="468.5679">Movements</text></g><!--class RandomHelper--><g class="entity" data-entity="RandomHelper" data-source-line="6" data-uid="ent0002" id="entity_RandomHelper"><rect fill="#2E2E2E" height="82.9457" rx="2.5" ry="2.5" style="stroke:#1B1B1B;stroke-width:0.5;" width="487.7686" x="1753" y="168.602"/><ellipse cx="1952.6929" cy="181.602" fill="#1A66C2" rx="8" ry="8" style="stroke:#181818;stroke-width:1;"/><path d="M1953.3335,185.7582 Q1952.4429,185.7582 1951.6772,185.4926 Q1950.9272,185.227 1950.3804,184.7114 Q1949.8491,184.1957 1949.5366,183.4145 Q1949.2397,182.6332 1949.2397,181.6176 Q1949.2397,180.6645 1949.521,179.8989 Q1949.8179,179.1176 1950.3647,178.5551 Q1950.8804,178.0239 1951.646,177.7426 Q1952.4272,177.4457 1953.3335,177.4457 Q1953.8335,177.4457 1954.2397,177.5082 Q1954.646,177.5551 1954.9897,177.6489 Q1955.3491,177.7582 1955.646,177.8832 Q1955.9429,178.0082 1956.1616,178.1176 L1956.1616,180.0551 L1955.9272,180.0551 Q1955.771,179.9301 1955.5366,179.7582 Q1955.3179,179.5707 1955.021,179.3989 Q1954.7241,179.227 1954.3804,179.1176 Q1954.0366,178.9926 1953.646,178.9926 Q1953.2085,178.9926 1952.8179,179.1332 Q1952.4272,179.2582 1952.0991,179.5864 Q1951.7866,179.8832 1951.5835,180.3989 Q1951.396,180.8989 1951.396,181.6176 Q1951.396,182.3676 1951.5991,182.8832 Q1951.8179,183.3832 1952.1304,183.6645 Q1952.4585,183.9614 1952.8647,184.0864 Q1953.271,184.2114 1953.6616,184.2114 Q1954.0366,184.2114 1954.396,184.102 Q1954.771,183.9926 1955.0835,183.7895 Q1955.3491,183.6489 1955.5679,183.477 Q1955.8022,183.2895 1955.9429,183.1645 L1956.1616,183.1645 L1956.1616,185.0707 Q1955.8647,185.2114 1955.5835,185.3364 Q1955.3179,185.4457 1955.0054,185.5239 Q1954.6147,185.6332 1954.271,185.6957 Q1953.9272,185.7582 1953.3335,185.7582 Z " fill="#000000"/><text fill="#AAAAAA" font-family="Verdana" font-size="11" lengthAdjust="spacing" textLength="81.3828" x="1968.6929" y="185.9767">RandomHelper</text><line style="stroke:#1B1B1B;stroke-width:0.5;" x1="1754" x2="2239.7686" y1="194.602" y2="194.602"/><ellipse cx="1764" cy="226.0748" fill="#84BE84" rx="3" ry="3" style="stroke:#038048;stroke-width:1;"/><text fill="#AAAAAA" font-family="sans-serif" font-size="11" lengthAdjust="spacing" text-decoration="underline" textLength="464.7686" x="1770" y="229.3428">UInt32 GenerateRandomInRange(UInt32 minValue, UInt32 maxValue, String rangeName);</text><ellipse cx="1764" cy="241.0567" fill="#84BE84" rx="3" ry="3" style="stroke:#038048;stroke-width:1;"/><text fill="#AAAAAA" font-family="sans-serif" font-size="11" lengthAdjust="spacing" text-decoration="underline" textLength="284.304" x="1770" y="244.3247">List`1 GetRandomSubset(List`1 sourceList, Int32 count);</text><line style="stroke:#1B1B1B;stroke-width:1;" x1="1754" x2="1974.0649" y1="210.0929" y2="210.0929"/><text fill="#AAAAAA" font-family="sans-serif" font-size="11" lengthAdjust="spacing" textLength="45.6387" x="1974.0649" y="213.8609">Methods</text><line style="stroke:#1B1B1B;stroke-width:1;" x1="2019.7036" x2="2239.7686" y1="210.0929" y2="210.0929"/></g><!--class ResourceLoader--><g class="entity" data-entity="ResourceLoader" data-source-line="13" data-uid="ent0006" id="entity_ResourceLoader"><rect fill="#2E2E2E" height="67.9638" rx="2.5" ry="2.5" style="stroke:#1B1B1B;stroke-width:0.5;" width="432.912" x="1284.5" y="176.102"/><ellipse cx="1453.4292" cy="189.102" fill="#1A66C2" rx="8" ry="8" style="stroke:#181818;stroke-width:1;"/><path d="M1454.0698,193.2582 Q1453.1792,193.2582 1452.4135,192.9926 Q1451.6635,192.727 1451.1167,192.2114 Q1450.5854,191.6957 1450.2729,190.9145 Q1449.976,190.1332 1449.976,189.1176 Q1449.976,188.1645 1450.2573,187.3989 Q1450.5542,186.6176 1451.101,186.0551 Q1451.6167,185.5239 1452.3823,185.2426 Q1453.1635,184.9457 1454.0698,184.9457 Q1454.5698,184.9457 1454.976,185.0082 Q1455.3823,185.0551 1455.726,185.1489 Q1456.0854,185.2582 1456.3823,185.3832 Q1456.6792,185.5082 1456.8979,185.6176 L1456.8979,187.5551 L1456.6635,187.5551 Q1456.5073,187.4301 1456.2729,187.2582 Q1456.0542,187.0707 1455.7573,186.8989 Q1455.4604,186.727 1455.1167,186.6176 Q1454.7729,186.4926 1454.3823,186.4926 Q1453.9448,186.4926 1453.5542,186.6332 Q1453.1635,186.7582 1452.8354,187.0864 Q1452.5229,187.3832 1452.3198,187.8989 Q1452.1323,188.3989 1452.1323,189.1176 Q1452.1323,189.8676 1452.3354,190.3832 Q1452.5542,190.8832 1452.8667,191.1645 Q1453.1948,191.4614 1453.601,191.5864 Q1454.0073,191.7114 1454.3979,191.7114 Q1454.7729,191.7114 1455.1323,191.602 Q1455.5073,191.4926 1455.8198,191.2895 Q1456.0854,191.1489 1456.3042,190.977 Q1456.5385,190.7895 1456.6792,190.6645 L1456.8979,190.6645 L1456.8979,192.5707 Q1456.601,192.7114 1456.3198,192.8364 Q1456.0542,192.9457 1455.7417,193.0239 Q1455.351,193.1332 1455.0073,193.1957 Q1454.6635,193.2582 1454.0698,193.2582 Z " fill="#000000"/><text fill="#AAAAAA" font-family="Verdana" font-size="11" lengthAdjust="spacing" textLength="88.0537" x="1469.4292" y="193.4767">ResourceLoader</text><line style="stroke:#1B1B1B;stroke-width:0.5;" x1="1285.5" x2="1716.412" y1="202.102" y2="202.102"/><ellipse cx="1295.5" cy="233.5748" fill="#84BE84" rx="3" ry="3" style="stroke:#038048;stroke-width:1;"/><text fill="#AAAAAA" font-family="sans-serif" font-size="11" lengthAdjust="spacing" text-decoration="underline" textLength="409.912" x="1301.5" y="236.8428">Image LoadImageFromAssembly(String resourceName, String assemblyName);</text><line style="stroke:#1B1B1B;stroke-width:1;" x1="1285.5" x2="1478.1367" y1="217.5929" y2="217.5929"/><text fill="#AAAAAA" font-family="sans-serif" font-size="11" lengthAdjust="spacing" textLength="45.6387" x="1478.1367" y="221.3609">Methods</text><line style="stroke:#1B1B1B;stroke-width:1;" x1="1523.7754" x2="1716.412" y1="217.5929" y2="217.5929"/></g><!--class IDrawable--><g class="entity" data-entity="IDrawable" data-source-line="6" data-uid="ent0007" id="entity_IDrawable"><rect fill="#2E2E2E" height="131.8913" rx="2.5" ry="2.5" style="stroke:#1B1B1B;stroke-width:0.5;" width="185.7549" x="1043" y="144.102"/><ellipse cx="1104.1846" cy="157.102" fill="#B4A7E5" rx="8" ry="8" style="stroke:#181818;stroke-width:1;"/><path d="M1106.5283,161.102 L1101.8408,161.102 L1101.8408,159.6801 L1103.1533,159.6801 L1103.1533,154.5239 L1101.8408,154.5239 L1101.8408,153.102 L1106.5283,153.102 L1106.5283,154.5239 L1105.2158,154.5239 L1105.2158,159.6801 L1106.5283,159.6801 L1106.5283,161.102 Z " fill="#000000"/><text fill="#AAAAAA" font-family="Verdana" font-size="11" font-style="italic" lengthAdjust="spacing" textLength="56.3857" x="1120.1846" y="161.4767">IDrawable</text><line style="stroke:#1B1B1B;stroke-width:0.5;" x1="1044" x2="1227.7549" y1="170.102" y2="170.102"/><ellipse cx="1054" cy="201.5748" fill="none" rx="3" ry="3" style="stroke:#038048;stroke-width:1;"/><text fill="#AAAAAA" font-family="sans-serif" font-size="11" lengthAdjust="spacing" textLength="162.7549" x="1060" y="204.8428">Int32 X { public get; public set; }</text><ellipse cx="1054" cy="216.5567" fill="none" rx="3" ry="3" style="stroke:#038048;stroke-width:1;"/><text fill="#AAAAAA" font-family="sans-serif" font-size="11" lengthAdjust="spacing" textLength="162.5349" x="1060" y="219.8247">Int32 Y { public get; public set; }</text><text fill="#AAAAAA" font-family="sans-serif" font-size="11" lengthAdjust="spacing" textLength="2.86" x="1060" y="234.8066">&#160;</text><line style="stroke:#1B1B1B;stroke-width:1;" x1="1044" x2="1109.0541" y1="185.5929" y2="185.5929"/><text fill="#AAAAAA" font-family="sans-serif" font-size="11" lengthAdjust="spacing" textLength="53.6466" x="1109.0541" y="189.3609">Properties</text><line style="stroke:#1B1B1B;stroke-width:1;" x1="1162.7007" x2="1227.7549" y1="185.5929" y2="185.5929"/><ellipse cx="1054" cy="265.5024" fill="#84BE84" rx="3" ry="3" style="stroke:#038048;stroke-width:1;"/><text fill="#AAAAAA" font-family="sans-serif" font-size="11" lengthAdjust="spacing" textLength="117.9522" x="1060" y="268.7703">Void Draw(Graphics g);</text><line style="stroke:#1B1B1B;stroke-width:1;" x1="1044" x2="1113.0581" y1="249.5205" y2="249.5205"/><text fill="#AAAAAA" font-family="sans-serif" font-size="11" lengthAdjust="spacing" textLength="45.6387" x="1113.0581" y="253.2884">Methods</text><line style="stroke:#1B1B1B;stroke-width:1;" x1="1158.6968" x2="1227.7549" y1="249.5205" y2="249.5205"/></g><!--class MovementFunctionType--><g class="entity" data-entity="MovementFunctionType" data-source-line="16" data-uid="ent0009" id="entity_MovementFunctionType"><rect fill="#2E2E2E" height="112.9094" rx="2.5" ry="2.5" style="stroke:#1B1B1B;stroke-width:0.5;" width="253.2283" x="754.5" y="153.602"/><ellipse cx="812.0062" cy="166.602" fill="#EB937F" rx="8" ry="8" style="stroke:#181818;stroke-width:1;"/><path d="M814.8187,170.602 L809.0219,170.602 L809.0219,162.602 L814.8187,162.602 L814.8187,164.1489 L811.0844,164.1489 L811.0844,165.5239 L814.5375,165.5239 L814.5375,167.0707 L811.0844,167.0707 L811.0844,169.0551 L814.8187,169.0551 L814.8187,170.602 Z " fill="#000000"/><text fill="#AAAAAA" font-family="Verdana" font-size="11" lengthAdjust="spacing" textLength="131.2158" x="828.0062" y="170.9767">MovementFunctionType</text><line style="stroke:#1B1B1B;stroke-width:0.5;" x1="755.5" x2="1006.7283" y1="179.602" y2="179.602"/><ellipse cx="765.5" cy="211.0748" fill="none" rx="3" ry="3" style="stroke:#038048;stroke-width:1;"/><text fill="#AAAAAA" font-family="sans-serif" font-size="11" lengthAdjust="spacing" textLength="70.2565" x="771.5" y="214.3428">Int32 value__;</text><ellipse cx="765.5" cy="226.0567" fill="none" rx="3" ry="3" style="stroke:#038048;stroke-width:1;"/><text fill="#AAAAAA" font-family="sans-serif" font-size="11" lengthAdjust="spacing" text-decoration="underline" textLength="213.5964" x="771.5" y="229.3247">MovementFunctionType CycleMovement;</text><ellipse cx="765.5" cy="241.0386" fill="none" rx="3" ry="3" style="stroke:#038048;stroke-width:1;"/><text fill="#AAAAAA" font-family="sans-serif" font-size="11" lengthAdjust="spacing" text-decoration="underline" textLength="230.2283" x="771.5" y="244.3066">MovementFunctionType RandomMovement;</text><ellipse cx="765.5" cy="256.0205" fill="none" rx="3" ry="3" style="stroke:#038048;stroke-width:1;"/><text fill="#AAAAAA" font-family="sans-serif" font-size="11" lengthAdjust="spacing" text-decoration="underline" textLength="219.4594" x="771.5" y="259.2884">MovementFunctionType EmptyMovement;</text><line style="stroke:#1B1B1B;stroke-width:1;" x1="755.5" x2="866.3027" y1="195.0929" y2="195.0929"/><text fill="#AAAAAA" font-family="sans-serif" font-size="11" lengthAdjust="spacing" textLength="29.6228" x="866.3027" y="198.8609">Fields</text><line style="stroke:#1B1B1B;stroke-width:1;" x1="895.9255" x2="1006.7283" y1="195.0929" y2="195.0929"/></g><!--class IMovementFunction--><g class="entity" data-entity="IMovementFunction" data-source-line="25" data-uid="ent0010" id="entity_IMovementFunction"><rect fill="#2E2E2E" height="67.9638" rx="2.5" ry="2.5" style="stroke:#1B1B1B;stroke-width:0.5;" width="169.6729" x="447" y="343.602"/><ellipse cx="474.5371" cy="356.602" fill="#B4A7E5" rx="8" ry="8" style="stroke:#181818;stroke-width:1;"/><path d="M476.8809,360.602 L472.1934,360.602 L472.1934,359.1801 L473.5059,359.1801 L473.5059,354.0239 L472.1934,354.0239 L472.1934,352.602 L476.8809,352.602 L476.8809,354.0239 L475.5684,354.0239 L475.5684,359.1801 L476.8809,359.1801 L476.8809,360.602 Z " fill="#000000"/><text fill="#AAAAAA" font-family="Verdana" font-size="11" font-style="italic" lengthAdjust="spacing" textLength="109.146" x="488.9898" y="360.9767">IMovementFunction</text><line style="stroke:#1B1B1B;stroke-width:0.5;" x1="448" x2="615.6729" y1="369.602" y2="369.602"/><ellipse cx="458" cy="401.0748" fill="#84BE84" rx="3" ry="3" style="stroke:#038048;stroke-width:1;"/><text fill="#AAAAAA" font-family="sans-serif" font-size="11" lengthAdjust="spacing" textLength="146.6729" x="464" y="404.3428">ValueTuple`2 Shift(Double t);</text><line style="stroke:#1B1B1B;stroke-width:1;" x1="448" x2="509.0171" y1="385.0929" y2="385.0929"/><text fill="#AAAAAA" font-family="sans-serif" font-size="11" lengthAdjust="spacing" textLength="45.6387" x="509.0171" y="388.8609">Methods</text><line style="stroke:#1B1B1B;stroke-width:1;" x1="554.6558" x2="615.6729" y1="385.0929" y2="385.0929"/></g><!--class IMoveable--><g class="entity" data-entity="IMoveable" data-source-line="31" data-uid="ent0011" id="entity_IMoveable"><rect fill="#2E2E2E" height="116.9094" rx="2.5" ry="2.5" style="stroke:#1B1B1B;stroke-width:0.5;" width="374.6454" x="344.5" y="151.602"/><ellipse cx="499.9929" cy="164.602" fill="#B4A7E5" rx="8" ry="8" style="stroke:#181818;stroke-width:1;"/><path d="M502.3366,168.602 L497.6491,168.602 L497.6491,167.1801 L498.9616,167.1801 L498.9616,162.0239 L497.6491,162.0239 L497.6491,160.602 L502.3366,160.602 L502.3366,162.0239 L501.0241,162.0239 L501.0241,167.1801 L502.3366,167.1801 L502.3366,168.602 Z " fill="#000000"/><text fill="#AAAAAA" font-family="Verdana" font-size="11" font-style="italic" lengthAdjust="spacing" textLength="56.6597" x="515.9929" y="168.9767">IMoveable</text><line style="stroke:#1B1B1B;stroke-width:0.5;" x1="345.5" x2="718.1454" y1="177.602" y2="177.602"/><ellipse cx="355.5" cy="209.0748" fill="none" rx="3" ry="3" style="stroke:#038048;stroke-width:1;"/><text fill="#AAAAAA" font-family="sans-serif" font-size="11" lengthAdjust="spacing" textLength="334.0126" x="361.5" y="212.3428">IMovementFunction MovementFunction { public get; public set; }</text><text fill="#AAAAAA" font-family="sans-serif" font-size="11" lengthAdjust="spacing" textLength="2.86" x="361.5" y="227.3247">&#160;</text><line style="stroke:#1B1B1B;stroke-width:1;" x1="345.5" x2="504.9994" y1="193.0929" y2="193.0929"/><text fill="#AAAAAA" font-family="sans-serif" font-size="11" lengthAdjust="spacing" textLength="53.6466" x="504.9994" y="196.8609">Properties</text><line style="stroke:#1B1B1B;stroke-width:1;" x1="558.646" x2="718.1454" y1="193.0929" y2="193.0929"/><ellipse cx="355.5" cy="258.0205" fill="#84BE84" rx="3" ry="3" style="stroke:#038048;stroke-width:1;"/><text fill="#AAAAAA" font-family="sans-serif" font-size="11" lengthAdjust="spacing" textLength="351.6454" x="361.5" y="261.2884">Void Move(Double timeElapsed, Int32 boundaryX, Int32 boundaryY);</text><line style="stroke:#1B1B1B;stroke-width:1;" x1="345.5" x2="509.0034" y1="242.0386" y2="242.0386"/><text fill="#AAAAAA" font-family="sans-serif" font-size="11" lengthAdjust="spacing" textLength="45.6387" x="509.0034" y="245.8066">Methods</text><line style="stroke:#1B1B1B;stroke-width:1;" x1="554.6421" x2="718.1454" y1="242.0386" y2="242.0386"/></g><!--class CoordinateRange--><g class="entity" data-entity="CoordinateRange" data-source-line="6" data-uid="ent0013" id="entity_CoordinateRange"><rect fill="#2E2E2E" height="146.8732" rx="2.5" ry="2.5" style="stroke:#1B1B1B;stroke-width:0.5;" width="218.3586" x="70" y="136.602"/><ellipse cx="128.3412" cy="149.602" fill="#1A66C2" rx="8" ry="8" style="stroke:#181818;stroke-width:1;"/><path d="M128.9818,153.7582 Q128.0912,153.7582 127.3255,153.4926 Q126.5755,153.227 126.0287,152.7114 Q125.4974,152.1957 125.1849,151.4145 Q124.888,150.6332 124.888,149.6176 Q124.888,148.6645 125.1693,147.8989 Q125.4662,147.1176 126.013,146.5551 Q126.5287,146.0239 127.2943,145.7426 Q128.0755,145.4457 128.9818,145.4457 Q129.4818,145.4457 129.888,145.5082 Q130.2943,145.5551 130.638,145.6489 Q130.9974,145.7582 131.2943,145.8832 Q131.5912,146.0082 131.8099,146.1176 L131.8099,148.0551 L131.5755,148.0551 Q131.4193,147.9301 131.1849,147.7582 Q130.9662,147.5707 130.6693,147.3989 Q130.3724,147.227 130.0287,147.1176 Q129.6849,146.9926 129.2943,146.9926 Q128.8568,146.9926 128.4662,147.1332 Q128.0755,147.2582 127.7474,147.5864 Q127.4349,147.8832 127.2318,148.3989 Q127.0443,148.8989 127.0443,149.6176 Q127.0443,150.3676 127.2474,150.8832 Q127.4662,151.3832 127.7787,151.6645 Q128.1068,151.9614 128.513,152.0864 Q128.9193,152.2114 129.3099,152.2114 Q129.6849,152.2114 130.0443,152.102 Q130.4193,151.9926 130.7318,151.7895 Q130.9974,151.6489 131.2162,151.477 Q131.4505,151.2895 131.5912,151.1645 L131.8099,151.1645 L131.8099,153.0707 Q131.513,153.2114 131.2318,153.3364 Q130.9662,153.4457 130.6537,153.5239 Q130.263,153.6332 129.9193,153.6957 Q129.5755,153.7582 128.9818,153.7582 Z " fill="#000000"/><text fill="#AAAAAA" font-family="Verdana" font-size="11" lengthAdjust="spacing" textLength="94.6763" x="144.3412" y="153.9767">CoordinateRange</text><line style="stroke:#1B1B1B;stroke-width:0.5;" x1="71" x2="287.3586" y1="162.602" y2="162.602"/><rect fill="none" height="6" style="stroke:#C82930;stroke-width:1;" width="6" x="78" y="191.0748"/><text fill="#AAAAAA" font-family="sans-serif" font-size="11" lengthAdjust="spacing" textLength="145.9579" x="87" y="197.3428">Int32 &lt;Min&gt;k__BackingField;</text><rect fill="none" height="6" style="stroke:#C82930;stroke-width:1;" width="6" x="78" y="206.0567"/><text fill="#AAAAAA" font-family="sans-serif" font-size="11" lengthAdjust="spacing" textLength="148.3119" x="87" y="212.3247">Int32 &lt;Max&gt;k__BackingField;</text><text fill="#AAAAAA" font-family="sans-serif" font-size="11" lengthAdjust="spacing" textLength="2.86" x="87" y="227.3066">&#160;</text><line style="stroke:#1B1B1B;stroke-width:1;" x1="71" x2="164.3679" y1="178.0929" y2="178.0929"/><text fill="#AAAAAA" font-family="sans-serif" font-size="11" lengthAdjust="spacing" textLength="29.6228" x="164.3679" y="181.8609">Fields</text><line style="stroke:#1B1B1B;stroke-width:1;" x1="193.9907" x2="287.3586" y1="178.0929" y2="178.0929"/><ellipse cx="81" cy="258.0024" fill="none" rx="3" ry="3" style="stroke:#038048;stroke-width:1;"/><text fill="#AAAAAA" font-family="sans-serif" font-size="11" lengthAdjust="spacing" textLength="193.0046" x="87" y="261.2703">Int32 Min { public get; unknown set; }</text><ellipse cx="81" cy="272.9843" fill="none" rx="3" ry="3" style="stroke:#038048;stroke-width:1;"/><text fill="#AAAAAA" font-family="sans-serif" font-size="11" lengthAdjust="spacing" textLength="195.3586" x="87" y="276.2522">Int32 Max { public get; unknown set; }</text><line style="stroke:#1B1B1B;stroke-width:1;" x1="71" x2="152.356" y1="242.0205" y2="242.0205"/><text fill="#AAAAAA" font-family="sans-serif" font-size="11" lengthAdjust="spacing" textLength="53.6466" x="152.356" y="245.7884">Properties</text><line style="stroke:#1B1B1B;stroke-width:1;" x1="206.0026" x2="287.3586" y1="242.0205" y2="242.0205"/></g><!--class EmptyMovement--><g class="entity" data-entity="EmptyMovement" data-source-line="6" data-uid="ent0015" id="entity_EmptyMovement"><rect fill="#2E2E2E" height="67.9638" rx="2.5" ry="2.5" style="stroke:#1B1B1B;stroke-width:0.5;" width="192.8167" x="435.5" y="489.602"/><ellipse cx="481.9537" cy="502.602" fill="#1A66C2" rx="8" ry="8" style="stroke:#181818;stroke-width:1;"/><path d="M482.5944,506.7582 Q481.7037,506.7582 480.9381,506.4926 Q480.1881,506.227 479.6412,505.7114 Q479.11,505.1957 478.7975,504.4145 Q478.5006,503.6332 478.5006,502.6176 Q478.5006,501.6645 478.7819,500.8989 Q479.0787,500.1176 479.6256,499.5551 Q480.1412,499.0239 480.9069,498.7426 Q481.6881,498.4457 482.5944,498.4457 Q483.0944,498.4457 483.5006,498.5082 Q483.9069,498.5551 484.2506,498.6489 Q484.61,498.7582 484.9069,498.8832 Q485.2037,499.0082 485.4225,499.1176 L485.4225,501.0551 L485.1881,501.0551 Q485.0319,500.9301 484.7975,500.7582 Q484.5787,500.5707 484.2819,500.3989 Q483.985,500.227 483.6412,500.1176 Q483.2975,499.9926 482.9069,499.9926 Q482.4694,499.9926 482.0787,500.1332 Q481.6881,500.2582 481.36,500.5864 Q481.0475,500.8832 480.8444,501.3989 Q480.6569,501.8989 480.6569,502.6176 Q480.6569,503.3676 480.86,503.8832 Q481.0787,504.3832 481.3912,504.6645 Q481.7194,504.9614 482.1256,505.0864 Q482.5319,505.2114 482.9225,505.2114 Q483.2975,505.2114 483.6569,505.102 Q484.0319,504.9926 484.3444,504.7895 Q484.61,504.6489 484.8287,504.477 Q485.0631,504.2895 485.2037,504.1645 L485.4225,504.1645 L485.4225,506.0707 Q485.1256,506.2114 484.8444,506.3364 Q484.5787,506.4457 484.2662,506.5239 Q483.8756,506.6332 483.5319,506.6957 Q483.1881,506.7582 482.5944,506.7582 Z " fill="#000000"/><text fill="#AAAAAA" font-family="Verdana" font-size="11" lengthAdjust="spacing" textLength="92.9092" x="497.9537" y="506.9767">EmptyMovement</text><line style="stroke:#1B1B1B;stroke-width:0.5;" x1="436.5" x2="627.3167" y1="515.602" y2="515.602"/><text fill="#AAAAAA" font-family="sans-serif" font-size="11" lengthAdjust="spacing" textLength="180.8167" x="441.5" y="550.3428">public ValueTuple`2 Shift(Double t);</text><line style="stroke:#1B1B1B;stroke-width:1;" x1="436.5" x2="509.089" y1="531.0929" y2="531.0929"/><text fill="#AAAAAA" font-family="sans-serif" font-size="11" lengthAdjust="spacing" textLength="45.6387" x="509.089" y="534.8609">Methods</text><line style="stroke:#1B1B1B;stroke-width:1;" x1="554.7277" x2="627.3167" y1="531.0929" y2="531.0929"/></g><!--reverse link IMoveable to IMovementFunction--><g class="link" data-entity-1="IMoveable" data-entity-2="IMovementFunction" data-source-line="42" data-uid="lnk12" id="link_IMoveable_IMovementFunction"><path codeLine="42" d="M532,280.982 C532,305.972 532,322.282 532,343.592" fill="none" id="IMoveable-backto-IMovementFunction" style="stroke:#FFFFFF;stroke-width:1;"/><polygon fill="none" points="532,268.982,528,274.982,532,280.982,536,274.982,532,268.982" style="stroke:#FFFFFF;stroke-width:1;"/></g><!--reverse link IMovementFunction to EmptyMovement--><g class="link" data-entity-1="IMovementFunction" data-entity-2="EmptyMovement" data-source-line="9" data-uid="lnk17" id="link_IMovementFunction_EmptyMovement"><path codeLine="9" d="M532,429.642 C532,452.892 532,465.892 532,489.222" fill="none" id="IMovementFunction-backto-EmptyMovement" style="stroke:#FFFFFF;stroke-width:1;"/><polygon fill="none" points="532,411.642,526,429.642,538,429.642,532,411.642" style="stroke:#FFFFFF;stroke-width:1;"/></g><!--SRC=[KypCIyufJKbLy4ZDAKWjAjOhACtDuLA4YNhcbQGMfIKcfw9B-EQdfEPW2fQbvgRcbK35kTI3FHo3N5qKN5m3NFrSNFsSFLs3kRXy4fCCzPppYrBra4ptXEbrAyrBBidCprEmgT7LLK2eHPZjcbjGKWdZSW40]--></g></svg>