<svg xmlns="http://www.w3.org/2000/svg" xmlns:xlink="http://www.w3.org/1999/xlink" contentStyleType="text/css" data-diagram-type="CLASS" height="2293px" preserveAspectRatio="none" style="width:685px;height:2293px;background:#777777;" version="1.1" viewBox="0 0 685 2293" width="685px" zoomAndPan="magnify"><defs/><g><rect fill="#777777" height="2293" style="stroke:none;stroke-width:1;" width="685" x="0" y="0"/><!--cluster WinFormsUI--><g class="cluster" data-entity="WinFormsUI" data-source-line="6" data-uid="ent0003" id="cluster_WinFormsUI"><path d="M8.5,6.602 L95.9497,6.602 A3.75,3.75 0 0 1 98.4497,9.102 L105.4497,31.6699 L675.5,31.6699 A2.5,2.5 0 0 1 678,34.1699 L678,2284.102 A2.5,2.5 0 0 1 675.5,2286.602 L8.5,2286.602 A2.5,2.5 0 0 1 6,2284.102 L6,9.102 A2.5,2.5 0 0 1 8.5,6.602" fill="none" style="stroke:#000000;stroke-width:1.5;"/><line style="stroke:#000000;stroke-width:1.5;" x1="6" x2="105.4497" y1="31.6699" y2="31.6699"/><text fill="#000000" font-family="sans-serif" font-size="14" font-weight="bold" lengthAdjust="spacing" textLength="86.4497" x="10" y="23.5679">WinFormsUI</text></g><!--class AboutForm--><g class="entity" data-entity="AboutForm" data-source-line="6" data-uid="ent0002" id="entity_AboutForm"><rect fill="#2E2E2E" height="656.2574" rx="2.5" ry="2.5" style="stroke:#1B1B1B;stroke-width:0.5;" width="440.5571" x="121.5" y="44.602"/><ellipse cx="307.9104" cy="57.602" fill="#1A66C2" rx="8" ry="8" style="stroke:#181818;stroke-width:1;"/><path d="M308.551,61.7582 Q307.6604,61.7582 306.8948,61.4926 Q306.1448,61.227 305.5979,60.7114 Q305.0667,60.1957 304.7542,59.4145 Q304.4573,58.6332 304.4573,57.6176 Q304.4573,56.6645 304.7385,55.8989 Q305.0354,55.1176 305.5823,54.5551 Q306.0979,54.0239 306.8635,53.7426 Q307.6448,53.4457 308.551,53.4457 Q309.051,53.4457 309.4573,53.5082 Q309.8635,53.5551 310.2073,53.6489 Q310.5667,53.7582 310.8635,53.8832 Q311.1604,54.0082 311.3792,54.1176 L311.3792,56.0551 L311.1448,56.0551 Q310.9885,55.9301 310.7542,55.7582 Q310.5354,55.5707 310.2385,55.3989 Q309.9417,55.227 309.5979,55.1176 Q309.2542,54.9926 308.8635,54.9926 Q308.426,54.9926 308.0354,55.1332 Q307.6448,55.2582 307.3167,55.5864 Q307.0042,55.8832 306.801,56.3989 Q306.6135,56.8989 306.6135,57.6176 Q306.6135,58.3676 306.8167,58.8832 Q307.0354,59.3832 307.3479,59.6645 Q307.676,59.9614 308.0823,60.0864 Q308.4885,60.2114 308.8792,60.2114 Q309.2542,60.2114 309.6135,60.102 Q309.9885,59.9926 310.301,59.7895 Q310.5667,59.6489 310.7854,59.477 Q311.0198,59.2895 311.1604,59.1645 L311.3792,59.1645 L311.3792,61.0707 Q311.0823,61.2114 310.801,61.3364 Q310.5354,61.4457 310.2229,61.5239 Q309.8323,61.6332 309.4885,61.6957 Q309.1448,61.7582 308.551,61.7582 Z " fill="#000000"/><text fill="#AAAAAA" font-family="Verdana" font-size="11" lengthAdjust="spacing" textLength="60.7363" x="323.9104" y="61.9767">AboutForm</text><line style="stroke:#1B1B1B;stroke-width:0.5;" x1="122.5" x2="561.0571" y1="70.602" y2="70.602"/><text fill="#AAAAAA" font-family="sans-serif" font-size="11" lengthAdjust="spacing" textLength="94.7423" x="138.5" y="105.3428">Basic Information:</text><text fill="#AAAAAA" font-family="sans-serif" font-size="11" lengthAdjust="spacing" textLength="2.86" x="138.5" y="120.3247">&#160;</text><rect fill="none" height="6" style="stroke:#C82930;stroke-width:1;" width="6" x="129.5" y="129.0386"/><text fill="#AAAAAA" font-family="sans-serif" font-size="11" lengthAdjust="spacing" textLength="99.3073" x="138.5" y="135.3066">String groupName;</text><rect fill="none" height="6" style="stroke:#C82930;stroke-width:1;" width="6" x="129.5" y="144.0205"/><text fill="#AAAAAA" font-family="sans-serif" font-size="11" lengthAdjust="spacing" textLength="108.1622" x="138.5" y="150.2884">String lecturerName;</text><text fill="#AAAAAA" font-family="sans-serif" font-size="11" lengthAdjust="spacing" textLength="2.86" x="138.5" y="165.2703">&#160;</text><text fill="#AAAAAA" font-family="sans-serif" font-size="11" lengthAdjust="spacing" textLength="83.9294" x="138.5" y="180.2522">UI Components:</text><text fill="#AAAAAA" font-family="sans-serif" font-size="11" lengthAdjust="spacing" textLength="2.86" x="138.5" y="195.2341">&#160;</text><rect fill="none" height="6" style="stroke:#C82930;stroke-width:1;" width="6" x="129.5" y="203.948"/><text fill="#AAAAAA" font-family="sans-serif" font-size="11" lengthAdjust="spacing" textLength="125.1461" x="138.5" y="210.216">IContainer components;</text><rect fill="none" height="6" style="stroke:#C82930;stroke-width:1;" width="6" x="129.5" y="218.9299"/><text fill="#AAAAAA" font-family="sans-serif" font-size="11" lengthAdjust="spacing" textLength="146.6949" x="138.5" y="225.1979">Label generalInformaionLbl;</text><rect fill="none" height="6" style="stroke:#C82930;stroke-width:1;" width="6" x="129.5" y="233.9118"/><text fill="#AAAAAA" font-family="sans-serif" font-size="11" lengthAdjust="spacing" textLength="116.1922" x="138.5" y="240.1798">Label projectNameLbl;</text><rect fill="none" height="6" style="stroke:#C82930;stroke-width:1;" width="6" x="129.5" y="248.8937"/><text fill="#AAAAAA" font-family="sans-serif" font-size="11" lengthAdjust="spacing" textLength="86.8114" x="138.5" y="255.1617">Label versionLbl;</text><rect fill="none" height="6" style="stroke:#C82930;stroke-width:1;" width="6" x="129.5" y="263.8756"/><text fill="#AAAAAA" font-family="sans-serif" font-size="11" lengthAdjust="spacing" textLength="83.8524" x="138.5" y="270.1435">Label authorLbl;</text><rect fill="none" height="6" style="stroke:#C82930;stroke-width:1;" width="6" x="129.5" y="278.8575"/><text fill="#AAAAAA" font-family="sans-serif" font-size="11" lengthAdjust="spacing" textLength="106.8423" x="138.5" y="285.1254">Label descriptionLbl;</text><rect fill="none" height="6" style="stroke:#C82930;stroke-width:1;" width="6" x="129.5" y="293.8394"/><text fill="#AAAAAA" font-family="sans-serif" font-size="11" lengthAdjust="spacing" textLength="97.3493" x="138.5" y="300.1073">Label disciplineLbl;</text><rect fill="none" height="6" style="stroke:#C82930;stroke-width:1;" width="6" x="129.5" y="308.8212"/><text fill="#AAAAAA" font-family="sans-serif" font-size="11" lengthAdjust="spacing" textLength="88.0874" x="138.5" y="315.0892">Label teacherLbl;</text><rect fill="none" height="6" style="stroke:#C82930;stroke-width:1;" width="6" x="129.5" y="323.8031"/><text fill="#AAAAAA" font-family="sans-serif" font-size="11" lengthAdjust="spacing" textLength="158.1349" x="138.5" y="330.0711">Label featuresFunctionalityLbl;</text><text fill="#AAAAAA" font-family="sans-serif" font-size="11" lengthAdjust="spacing" textLength="2.86" x="138.5" y="345.053">&#160;</text><rect fill="none" height="6" style="stroke:#C82930;stroke-width:1;" width="6" x="129.5" y="353.7669"/><text fill="#AAAAAA" font-family="sans-serif" font-size="11" lengthAdjust="spacing" textLength="71.5985" x="138.5" y="360.0349">Button okBtn;</text><rect fill="none" height="6" style="stroke:#C82930;stroke-width:1;" width="6" x="129.5" y="368.7488"/><text fill="#AAAAAA" font-family="sans-serif" font-size="11" lengthAdjust="spacing" textLength="189.9577" x="138.5" y="375.0168">ListBox featuresFunctionalityListBox;</text><rect fill="none" height="6" style="stroke:#C82930;stroke-width:1;" width="6" x="129.5" y="383.7307"/><text fill="#AAAAAA" font-family="sans-serif" font-size="11" lengthAdjust="spacing" textLength="127.7201" x="138.5" y="389.9987">LinkLabel projectLinkLbl;</text><text fill="#AAAAAA" font-family="sans-serif" font-size="11" lengthAdjust="spacing" textLength="2.86" x="138.5" y="404.9805">&#160;</text><text fill="#AAAAAA" font-family="sans-serif" font-size="11" lengthAdjust="spacing" textLength="58.2556" x="138.5" y="419.9624">Versioning:</text><text fill="#AAAAAA" font-family="sans-serif" font-size="11" lengthAdjust="spacing" textLength="2.86" x="138.5" y="434.9443">&#160;</text><rect fill="none" height="6" style="stroke:#C82930;stroke-width:1;" width="6" x="129.5" y="443.6582"/><text fill="#AAAAAA" font-family="sans-serif" font-size="11" lengthAdjust="spacing" text-decoration="underline" textLength="110.3292" x="138.5" y="449.9262">UInt32 majorVersion;</text><rect fill="none" height="6" style="stroke:#C82930;stroke-width:1;" width="6" x="129.5" y="458.6401"/><text fill="#AAAAAA" font-family="sans-serif" font-size="11" lengthAdjust="spacing" text-decoration="underline" textLength="110.9562" x="138.5" y="464.9081">UInt32 minorVersion;</text><rect fill="none" height="6" style="stroke:#C82930;stroke-width:1;" width="6" x="129.5" y="473.622"/><text fill="#AAAAAA" font-family="sans-serif" font-size="11" lengthAdjust="spacing" text-decoration="underline" textLength="108.8222" x="138.5" y="479.89">UInt32 patchVersion;</text><text fill="#AAAAAA" font-family="sans-serif" font-size="11" lengthAdjust="spacing" textLength="2.86" x="138.5" y="494.8719">&#160;</text><line style="stroke:#1B1B1B;stroke-width:1;" x1="122.5" x2="326.9672" y1="86.0929" y2="86.0929"/><text fill="#AAAAAA" font-family="sans-serif" font-size="11" lengthAdjust="spacing" textLength="29.6228" x="326.9672" y="89.8609">Fields</text><line style="stroke:#1B1B1B;stroke-width:1;" x1="356.59" x2="561.0571" y1="86.0929" y2="86.0929"/><text fill="#AAAAAA" font-family="sans-serif" font-size="11" lengthAdjust="spacing" textLength="81.2234" x="138.5" y="528.8356">Event Handlers:</text><text fill="#AAAAAA" font-family="sans-serif" font-size="11" lengthAdjust="spacing" textLength="2.86" x="138.5" y="543.8175">&#160;</text><rect fill="#F24D5C" height="6" style="stroke:#C82930;stroke-width:1;" width="6" x="129.5" y="552.5314"/><text fill="#AAAAAA" font-family="sans-serif" font-size="11" lengthAdjust="spacing" textLength="233.8253" x="138.5" y="558.7994">Void okBtn_Click(Object sender, EventArgs e);</text><rect fill="#F24D5C" height="6" style="stroke:#C82930;stroke-width:1;" width="6" x="129.5" y="567.5133"/><text fill="#AAAAAA" font-family="sans-serif" font-size="11" lengthAdjust="spacing" textLength="417.5571" x="138.5" y="573.7813">Void projectLinkLbl_LinkClicked(Object sender, LinkLabelLinkClickedEventArgs e);</text><text fill="#AAAAAA" font-family="sans-serif" font-size="11" lengthAdjust="spacing" textLength="2.86" x="138.5" y="588.7632">&#160;</text><text fill="#AAAAAA" font-family="sans-serif" font-size="11" lengthAdjust="spacing" textLength="46.7497" x="138.5" y="603.7451">Lifecycle:</text><text fill="#AAAAAA" font-family="sans-serif" font-size="11" lengthAdjust="spacing" textLength="2.86" x="138.5" y="618.727">&#160;</text><polygon fill="#FFFF44" points="132.5,625.4409,136.5,629.4409,132.5,633.4409,128.5,629.4409" style="stroke:#B38D22;stroke-width:1;"/><text fill="#AAAAAA" font-family="sans-serif" font-size="11" lengthAdjust="spacing" textLength="171.5878" x="138.5" y="633.7089">Void Dispose(Boolean disposing);</text><text fill="#AAAAAA" font-family="sans-serif" font-size="11" lengthAdjust="spacing" textLength="2.86" x="138.5" y="648.6907">&#160;</text><text fill="#AAAAAA" font-family="sans-serif" font-size="11" lengthAdjust="spacing" textLength="66.5715" x="138.5" y="663.6726">Initialization:</text><text fill="#AAAAAA" font-family="sans-serif" font-size="11" lengthAdjust="spacing" textLength="2.86" x="138.5" y="678.6545">&#160;</text><rect fill="#F24D5C" height="6" style="stroke:#C82930;stroke-width:1;" width="6" x="129.5" y="687.3684"/><text fill="#AAAAAA" font-family="sans-serif" font-size="11" lengthAdjust="spacing" textLength="139.743" x="138.5" y="693.6364">Void InitializeComponent();</text><line style="stroke:#1B1B1B;stroke-width:1;" x1="122.5" x2="318.9592" y1="509.5858" y2="509.5858"/><text fill="#AAAAAA" font-family="sans-serif" font-size="11" lengthAdjust="spacing" textLength="45.6387" x="318.9592" y="513.3538">Methods</text><line style="stroke:#1B1B1B;stroke-width:1;" x1="364.5979" x2="561.0571" y1="509.5858" y2="509.5858"/></g><!--class ObjectMovementSimulationForm--><g class="entity" data-entity="ObjectMovementSimulationForm" data-source-line="51" data-uid="ent0004" id="entity_ObjectMovementSimulationForm"><rect fill="#2E2E2E" height="1510.225" rx="2.5" ry="2.5" style="stroke:#1B1B1B;stroke-width:0.5;" width="639.0508" x="22.5" y="760.602"/><ellipse cx="248.1863" cy="773.602" fill="#1A66C2" rx="8" ry="8" style="stroke:#181818;stroke-width:1;"/><path d="M248.8269,777.7582 Q247.9363,777.7582 247.1707,777.4926 Q246.4207,777.227 245.8738,776.7114 Q245.3426,776.1957 245.0301,775.4145 Q244.7332,774.6332 244.7332,773.6176 Q244.7332,772.6645 245.0144,771.8989 Q245.3113,771.1176 245.8582,770.5551 Q246.3738,770.0239 247.1394,769.7426 Q247.9207,769.4457 248.8269,769.4457 Q249.3269,769.4457 249.7332,769.5082 Q250.1394,769.5551 250.4832,769.6489 Q250.8426,769.7582 251.1394,769.8832 Q251.4363,770.0082 251.6551,770.1176 L251.6551,772.0551 L251.4207,772.0551 Q251.2644,771.9301 251.0301,771.7582 Q250.8113,771.5707 250.5144,771.3989 Q250.2176,771.227 249.8738,771.1176 Q249.5301,770.9926 249.1394,770.9926 Q248.7019,770.9926 248.3113,771.1332 Q247.9207,771.2582 247.5926,771.5864 Q247.2801,771.8832 247.0769,772.3989 Q246.8894,772.8989 246.8894,773.6176 Q246.8894,774.3676 247.0926,774.8832 Q247.3113,775.3832 247.6238,775.6645 Q247.9519,775.9614 248.3582,776.0864 Q248.7644,776.2114 249.1551,776.2114 Q249.5301,776.2114 249.8894,776.102 Q250.2644,775.9926 250.5769,775.7895 Q250.8426,775.6489 251.0613,775.477 Q251.2957,775.2895 251.4363,775.1645 L251.6551,775.1645 L251.6551,777.0707 Q251.3582,777.2114 251.0769,777.3364 Q250.8113,777.4457 250.4988,777.5239 Q250.1082,777.6332 249.7644,777.6957 Q249.4207,777.7582 248.8269,777.7582 Z " fill="#000000"/><text fill="#AAAAAA" font-family="Verdana" font-size="11" lengthAdjust="spacing" textLength="180.6782" x="264.1863" y="777.9767">ObjectMovementSimulationForm</text><line style="stroke:#1B1B1B;stroke-width:0.5;" x1="23.5" x2="660.5508" y1="786.602" y2="786.602"/><text fill="#AAAAAA" font-family="sans-serif" font-size="11" lengthAdjust="spacing" textLength="86.4484" x="39.5" y="821.3428">Data Collections:</text><text fill="#AAAAAA" font-family="sans-serif" font-size="11" lengthAdjust="spacing" textLength="2.86" x="39.5" y="836.3247">&#160;</text><rect fill="none" height="6" style="stroke:#C82930;stroke-width:1;" width="6" x="30.5" y="845.0386"/><text fill="#AAAAAA" font-family="sans-serif" font-size="11" lengthAdjust="spacing" textLength="138.973" x="39.5" y="851.3066">List&lt;Drawable&gt; drawables;</text><rect fill="none" height="6" style="stroke:#C82930;stroke-width:1;" width="6" x="30.5" y="860.0205"/><text fill="#AAAAAA" font-family="sans-serif" font-size="11" lengthAdjust="spacing" textLength="136.41" x="39.5" y="866.2884">List&lt;Movable&gt; moveables;</text><rect fill="none" height="6" style="stroke:#C82930;stroke-width:1;" width="6" x="30.5" y="875.0024"/><text fill="#AAAAAA" font-family="sans-serif" font-size="11" lengthAdjust="spacing" textLength="216.5444" x="39.5" y="881.2703">List&lt;ThreadController&gt; threadControllers;</text><text fill="#AAAAAA" font-family="sans-serif" font-size="11" lengthAdjust="spacing" textLength="2.86" x="39.5" y="896.2522">&#160;</text><text fill="#AAAAAA" font-family="sans-serif" font-size="11" lengthAdjust="spacing" textLength="83.9294" x="39.5" y="911.2341">UI Components:</text><text fill="#AAAAAA" font-family="sans-serif" font-size="11" lengthAdjust="spacing" textLength="2.86" x="39.5" y="926.216">&#160;</text><rect fill="none" height="6" style="stroke:#C82930;stroke-width:1;" width="6" x="30.5" y="934.9299"/><text fill="#AAAAAA" font-family="sans-serif" font-size="11" lengthAdjust="spacing" textLength="125.1461" x="39.5" y="941.1979">IContainer components;</text><rect fill="none" height="6" style="stroke:#C82930;stroke-width:1;" width="6" x="30.5" y="949.9118"/><text fill="#AAAAAA" font-family="sans-serif" font-size="11" lengthAdjust="spacing" textLength="121.7691" x="39.5" y="956.1798">Timer movementTimer;</text><rect fill="none" height="6" style="stroke:#C82930;stroke-width:1;" width="6" x="30.5" y="964.8937"/><text fill="#AAAAAA" font-family="sans-serif" font-size="11" lengthAdjust="spacing" textLength="107.6342" x="39.5" y="971.1617">Timer uiStatusTimer;</text><rect fill="none" height="6" style="stroke:#C82930;stroke-width:1;" width="6" x="30.5" y="979.8756"/><text fill="#AAAAAA" font-family="sans-serif" font-size="11" lengthAdjust="spacing" textLength="113.9812" x="39.5" y="986.1435">MenuStrip menuStrip;</text><rect fill="none" height="6" style="stroke:#C82930;stroke-width:1;" width="6" x="30.5" y="994.8575"/><text fill="#AAAAAA" font-family="sans-serif" font-size="11" lengthAdjust="spacing" textLength="96.5023" x="39.5" y="1001.1254">ToolStrip toolStrip;</text><rect fill="none" height="6" style="stroke:#C82930;stroke-width:1;" width="6" x="30.5" y="1009.8394"/><text fill="#AAAAAA" font-family="sans-serif" font-size="11" lengthAdjust="spacing" textLength="156.7379" x="39.5" y="1016.1073">ListView threadStatusListView;</text><rect fill="none" height="6" style="stroke:#C82930;stroke-width:1;" width="6" x="30.5" y="1024.8212"/><text fill="#AAAAAA" font-family="sans-serif" font-size="11" lengthAdjust="spacing" textLength="117.7872" x="39.5" y="1031.0892">StatusStrip statusStrip;</text><rect fill="none" height="6" style="stroke:#C82930;stroke-width:1;" width="6" x="30.5" y="1039.8031"/><text fill="#AAAAAA" font-family="sans-serif" font-size="11" lengthAdjust="spacing" textLength="157.4419" x="39.5" y="1046.0711">ComboBox priorityComboBox;</text><rect fill="none" height="6" style="stroke:#C82930;stroke-width:1;" width="6" x="30.5" y="1054.785"/><text fill="#AAAAAA" font-family="sans-serif" font-size="11" lengthAdjust="spacing" textLength="105.6652" x="39.5" y="1061.053">Panel drawingPanel;</text><rect fill="none" height="6" style="stroke:#C82930;stroke-width:1;" width="6" x="30.5" y="1069.7669"/><text fill="#AAAAAA" font-family="sans-serif" font-size="11" lengthAdjust="spacing" textLength="140.106" x="39.5" y="1076.0349">Label simulationFieldLabel;</text><text fill="#AAAAAA" font-family="sans-serif" font-size="11" lengthAdjust="spacing" textLength="2.86" x="39.5" y="1091.0168">&#160;</text><text fill="#AAAAAA" font-family="sans-serif" font-size="11" lengthAdjust="spacing" textLength="165.8458" x="39.5" y="1105.9987">ToolStrip Buttons &amp; MenuItems:</text><text fill="#AAAAAA" font-family="sans-serif" font-size="11" lengthAdjust="spacing" textLength="2.86" x="39.5" y="1120.9805">&#160;</text><rect fill="none" height="6" style="stroke:#C82930;stroke-width:1;" width="6" x="30.5" y="1129.6945"/><text fill="#AAAAAA" font-family="sans-serif" font-size="11" lengthAdjust="spacing" textLength="174.4588" x="39.5" y="1135.9624">ToolStripButton toolStripStartBtn;</text><rect fill="none" height="6" style="stroke:#C82930;stroke-width:1;" width="6" x="30.5" y="1144.6763"/><text fill="#AAAAAA" font-family="sans-serif" font-size="11" lengthAdjust="spacing" textLength="204.9176" x="39.5" y="1150.9443">ToolStripSeparator toolStripSeparator1;</text><rect fill="none" height="6" style="stroke:#C82930;stroke-width:1;" width="6" x="30.5" y="1159.6582"/><text fill="#AAAAAA" font-family="sans-serif" font-size="11" lengthAdjust="spacing" textLength="180.8607" x="39.5" y="1165.9262">ToolStripButton toolStripPauseBtn;</text><rect fill="none" height="6" style="stroke:#C82930;stroke-width:1;" width="6" x="30.5" y="1174.6401"/><text fill="#AAAAAA" font-family="sans-serif" font-size="11" lengthAdjust="spacing" textLength="204.9176" x="39.5" y="1180.9081">ToolStripSeparator toolStripSeparator2;</text><rect fill="none" height="6" style="stroke:#C82930;stroke-width:1;" width="6" x="30.5" y="1189.622"/><text fill="#AAAAAA" font-family="sans-serif" font-size="11" lengthAdjust="spacing" textLength="191.3656" x="39.5" y="1195.89">ToolStripButton toolStripResumeBtn;</text><rect fill="none" height="6" style="stroke:#C82930;stroke-width:1;" width="6" x="30.5" y="1204.6039"/><text fill="#AAAAAA" font-family="sans-serif" font-size="11" lengthAdjust="spacing" textLength="204.9176" x="39.5" y="1210.8719">ToolStripSeparator toolStripSeparator3;</text><rect fill="none" height="6" style="stroke:#C82930;stroke-width:1;" width="6" x="30.5" y="1219.5858"/><text fill="#AAAAAA" font-family="sans-serif" font-size="11" lengthAdjust="spacing" textLength="173.1938" x="39.5" y="1225.8538">ToolStripButton toolStripStopBtn;</text><rect fill="none" height="6" style="stroke:#C82930;stroke-width:1;" width="6" x="30.5" y="1234.5677"/><text fill="#AAAAAA" font-family="sans-serif" font-size="11" lengthAdjust="spacing" textLength="222.3964" x="39.5" y="1240.8356">ToolStripMenuItem sdfToolStripMenuItem;</text><rect fill="none" height="6" style="stroke:#C82930;stroke-width:1;" width="6" x="30.5" y="1249.5496"/><text fill="#AAAAAA" font-family="sans-serif" font-size="11" lengthAdjust="spacing" textLength="225.4104" x="39.5" y="1255.8175">ToolStripMenuItem exitToolStripMenuItem;</text><rect fill="none" height="6" style="stroke:#C82930;stroke-width:1;" width="6" x="30.5" y="1264.5314"/><text fill="#AAAAAA" font-family="sans-serif" font-size="11" lengthAdjust="spacing" textLength="261.0391" x="39.5" y="1270.7994">ToolStripMenuItem simulationToolStripMenuItem;</text><rect fill="none" height="6" style="stroke:#C82930;stroke-width:1;" width="6" x="30.5" y="1279.5133"/><text fill="#AAAAAA" font-family="sans-serif" font-size="11" lengthAdjust="spacing" textLength="230.5034" x="39.5" y="1285.7813">ToolStripMenuItem startToolStripMenuItem;</text><rect fill="none" height="6" style="stroke:#C82930;stroke-width:1;" width="6" x="30.5" y="1294.4952"/><text fill="#AAAAAA" font-family="sans-serif" font-size="11" lengthAdjust="spacing" textLength="237.7853" x="39.5" y="1300.7632">ToolStripMenuItem pauseToolStripMenuItem;</text><rect fill="none" height="6" style="stroke:#C82930;stroke-width:1;" width="6" x="30.5" y="1309.4771"/><text fill="#AAAAAA" font-family="sans-serif" font-size="11" lengthAdjust="spacing" textLength="245.8812" x="39.5" y="1315.7451">ToolStripMenuItem resumeToolStripMenuItem;</text><rect fill="none" height="6" style="stroke:#C82930;stroke-width:1;" width="6" x="30.5" y="1324.459"/><text fill="#AAAAAA" font-family="sans-serif" font-size="11" lengthAdjust="spacing" textLength="229.2384" x="39.5" y="1330.727">ToolStripMenuItem stopToolStripMenuItem;</text><rect fill="none" height="6" style="stroke:#C82930;stroke-width:1;" width="6" x="30.5" y="1339.4409"/><text fill="#AAAAAA" font-family="sans-serif" font-size="11" lengthAdjust="spacing" textLength="229.1833" x="39.5" y="1345.7089">ToolStripMenuItem helpToolStripMenuItem;</text><rect fill="none" height="6" style="stroke:#C82930;stroke-width:1;" width="6" x="30.5" y="1354.4228"/><text fill="#AAAAAA" font-family="sans-serif" font-size="11" lengthAdjust="spacing" textLength="236.9383" x="39.5" y="1360.6907">ToolStripMenuItem aboutToolStripMenuItem;</text><text fill="#AAAAAA" font-family="sans-serif" font-size="11" lengthAdjust="spacing" textLength="2.86" x="39.5" y="1375.6726">&#160;</text><text fill="#AAAAAA" font-family="sans-serif" font-size="11" lengthAdjust="spacing" textLength="93.5323" x="39.5" y="1390.6545">ListView Columns:</text><text fill="#AAAAAA" font-family="sans-serif" font-size="11" lengthAdjust="spacing" textLength="2.86" x="39.5" y="1405.6364">&#160;</text><rect fill="none" height="6" style="stroke:#C82930;stroke-width:1;" width="6" x="30.5" y="1414.3503"/><text fill="#AAAAAA" font-family="sans-serif" font-size="11" lengthAdjust="spacing" textLength="196.9866" x="39.5" y="1420.6183">ColumnHeader threadColumnHeader;</text><rect fill="none" height="6" style="stroke:#C82930;stroke-width:1;" width="6" x="30.5" y="1429.3322"/><text fill="#AAAAAA" font-family="sans-serif" font-size="11" lengthAdjust="spacing" textLength="193.9836" x="39.5" y="1435.6002">ColumnHeader statusColumnHeader;</text><rect fill="none" height="6" style="stroke:#C82930;stroke-width:1;" width="6" x="30.5" y="1444.3141"/><text fill="#AAAAAA" font-family="sans-serif" font-size="11" lengthAdjust="spacing" textLength="200.2975" x="39.5" y="1450.5821">ColumnHeader priorityColumnHeader;</text><text fill="#AAAAAA" font-family="sans-serif" font-size="11" lengthAdjust="spacing" textLength="2.86" x="39.5" y="1465.564">&#160;</text><text fill="#AAAAAA" font-family="sans-serif" font-size="11" lengthAdjust="spacing" textLength="71.0375" x="39.5" y="1480.5458">Status Labels:</text><text fill="#AAAAAA" font-family="sans-serif" font-size="11" lengthAdjust="spacing" textLength="2.86" x="39.5" y="1495.5277">&#160;</text><rect fill="none" height="6" style="stroke:#C82930;stroke-width:1;" width="6" x="30.5" y="1504.2417"/><text fill="#AAAAAA" font-family="sans-serif" font-size="11" lengthAdjust="spacing" textLength="206.6006" x="39.5" y="1510.5096">ToolStripStatusLabel threadStatusLabel;</text><text fill="#AAAAAA" font-family="sans-serif" font-size="11" lengthAdjust="spacing" textLength="2.86" x="39.5" y="1525.4915">&#160;</text><text fill="#AAAAAA" font-family="sans-serif" font-size="11" lengthAdjust="spacing" textLength="54.8016" x="39.5" y="1540.4734">Constants:</text><text fill="#AAAAAA" font-family="sans-serif" font-size="11" lengthAdjust="spacing" textLength="2.86" x="39.5" y="1555.4553">&#160;</text><rect fill="none" height="6" style="stroke:#C82930;stroke-width:1;" width="6" x="30.5" y="1564.1692"/><text fill="#AAAAAA" font-family="sans-serif" font-size="11" lengthAdjust="spacing" text-decoration="underline" textLength="154.7908" x="39.5" y="1570.4372">UInt32 MIN_OBJECTS_COUNT;</text><rect fill="none" height="6" style="stroke:#C82930;stroke-width:1;" width="6" x="30.5" y="1579.1511"/><text fill="#AAAAAA" font-family="sans-serif" font-size="11" lengthAdjust="spacing" text-decoration="underline" textLength="156.1768" x="39.5" y="1585.4191">UInt32 MAX_OBJECTS_COUNT;</text><text fill="#AAAAAA" font-family="sans-serif" font-size="11" lengthAdjust="spacing" textLength="2.86" x="39.5" y="1600.4009">&#160;</text><line style="stroke:#1B1B1B;stroke-width:1;" x1="23.5" x2="327.214" y1="802.0929" y2="802.0929"/><text fill="#AAAAAA" font-family="sans-serif" font-size="11" lengthAdjust="spacing" textLength="29.6228" x="327.214" y="805.8609">Fields</text><line style="stroke:#1B1B1B;stroke-width:1;" x1="356.8368" x2="660.5508" y1="802.0929" y2="802.0929"/><text fill="#AAAAAA" font-family="sans-serif" font-size="11" lengthAdjust="spacing" textLength="47.3547" x="39.5" y="1634.3647">UI Setup:</text><text fill="#AAAAAA" font-family="sans-serif" font-size="11" lengthAdjust="spacing" textLength="2.86" x="39.5" y="1649.3466">&#160;</text><rect fill="#F24D5C" height="6" style="stroke:#C82930;stroke-width:1;" width="6" x="30.5" y="1658.0605"/><text fill="#AAAAAA" font-family="sans-serif" font-size="11" lengthAdjust="spacing" textLength="138.731" x="39.5" y="1664.3285">void InitializeComponent();</text><rect fill="#F24D5C" height="6" style="stroke:#C82930;stroke-width:1;" width="6" x="30.5" y="1673.0424"/><text fill="#AAAAAA" font-family="sans-serif" font-size="11" lengthAdjust="spacing" textLength="149.6979" x="39.5" y="1679.3104">void SetupMovementTimer();</text><rect fill="#F24D5C" height="6" style="stroke:#C82930;stroke-width:1;" width="6" x="30.5" y="1688.0243"/><text fill="#AAAAAA" font-family="sans-serif" font-size="11" lengthAdjust="spacing" textLength="137.114" x="39.5" y="1694.2923">void SetupUiStatusTimer();</text><text fill="#AAAAAA" font-family="sans-serif" font-size="11" lengthAdjust="spacing" textLength="2.86" x="39.5" y="1709.2742">&#160;</text><text fill="#AAAAAA" font-family="sans-serif" font-size="11" lengthAdjust="spacing" textLength="81.2234" x="39.5" y="1724.2561">Event Handlers:</text><text fill="#AAAAAA" font-family="sans-serif" font-size="11" lengthAdjust="spacing" textLength="2.86" x="39.5" y="1739.2379">&#160;</text><rect fill="#F24D5C" height="6" style="stroke:#C82930;stroke-width:1;" width="6" x="30.5" y="1747.9519"/><text fill="#AAAAAA" font-family="sans-serif" font-size="11" lengthAdjust="spacing" textLength="289.254" x="39.5" y="1754.2198">void toolStripStartBtn_Click(Object sender, EventArgs e);</text><rect fill="#F24D5C" height="6" style="stroke:#C82930;stroke-width:1;" width="6" x="30.5" y="1762.9337"/><text fill="#AAAAAA" font-family="sans-serif" font-size="11" lengthAdjust="spacing" textLength="295.6559" x="39.5" y="1769.2017">void toolStripPauseBtn_Click(Object sender, EventArgs e);</text><rect fill="#F24D5C" height="6" style="stroke:#C82930;stroke-width:1;" width="6" x="30.5" y="1777.9156"/><text fill="#AAAAAA" font-family="sans-serif" font-size="11" lengthAdjust="spacing" textLength="306.1608" x="39.5" y="1784.1836">void toolStripResumeBtn_Click(Object sender, EventArgs e);</text><rect fill="#F24D5C" height="6" style="stroke:#C82930;stroke-width:1;" width="6" x="30.5" y="1792.8975"/><text fill="#AAAAAA" font-family="sans-serif" font-size="11" lengthAdjust="spacing" textLength="287.989" x="39.5" y="1799.1655">void toolStripStopBtn_Click(Object sender, EventArgs e);</text><rect fill="#F24D5C" height="6" style="stroke:#C82930;stroke-width:1;" width="6" x="30.5" y="1807.8794"/><text fill="#AAAAAA" font-family="sans-serif" font-size="11" lengthAdjust="spacing" textLength="326.6757" x="39.5" y="1814.1474">void startToolStripMenuItem_Click(Object sender, EventArgs e);</text><rect fill="#F24D5C" height="6" style="stroke:#C82930;stroke-width:1;" width="6" x="30.5" y="1822.8613"/><text fill="#AAAAAA" font-family="sans-serif" font-size="11" lengthAdjust="spacing" textLength="333.9576" x="39.5" y="1829.1293">void pauseToolStripMenuItem_Click(Object sender, EventArgs e);</text><rect fill="#F24D5C" height="6" style="stroke:#C82930;stroke-width:1;" width="6" x="30.5" y="1837.8432"/><text fill="#AAAAAA" font-family="sans-serif" font-size="11" lengthAdjust="spacing" textLength="342.0536" x="39.5" y="1844.1112">void resumeToolStripMenuItem_Click(Object sender, EventArgs e);</text><rect fill="#F24D5C" height="6" style="stroke:#C82930;stroke-width:1;" width="6" x="30.5" y="1852.8251"/><text fill="#AAAAAA" font-family="sans-serif" font-size="11" lengthAdjust="spacing" textLength="325.4107" x="39.5" y="1859.093">void stopToolStripMenuItem_Click(Object sender, EventArgs e);</text><rect fill="#F24D5C" height="6" style="stroke:#C82930;stroke-width:1;" width="6" x="30.5" y="1867.807"/><text fill="#AAAAAA" font-family="sans-serif" font-size="11" lengthAdjust="spacing" textLength="321.5827" x="39.5" y="1874.0749">void exitToolStripMenuItem_Click(Object sender, EventArgs e);</text><rect fill="#F24D5C" height="6" style="stroke:#C82930;stroke-width:1;" width="6" x="30.5" y="1882.7888"/><text fill="#AAAAAA" font-family="sans-serif" font-size="11" lengthAdjust="spacing" textLength="333.1107" x="39.5" y="1889.0568">void aboutToolStripMenuItem_Click(Object sender, EventArgs e);</text><rect fill="#F24D5C" height="6" style="stroke:#C82930;stroke-width:1;" width="6" x="30.5" y="1897.7707"/><text fill="#AAAAAA" font-family="sans-serif" font-size="11" lengthAdjust="spacing" textLength="392.5542" x="39.5" y="1904.0387">void priorityComboBox_SelectedIndexChanged(Object sender, EventArgs e);</text><rect fill="#F24D5C" height="6" style="stroke:#C82930;stroke-width:1;" width="6" x="30.5" y="1912.7526"/><text fill="#AAAAAA" font-family="sans-serif" font-size="11" lengthAdjust="spacing" textLength="418.261" x="39.5" y="1919.0206">void threadStatusListView_MouseDoubleClick(Object sender, MouseEventArgs e);</text><rect fill="#F24D5C" height="6" style="stroke:#C82930;stroke-width:1;" width="6" x="30.5" y="1927.7345"/><text fill="#AAAAAA" font-family="sans-serif" font-size="11" lengthAdjust="spacing" textLength="302.6409" x="39.5" y="1934.0025">void drawingPanel_Paint(Object sender, PaintEventArgs e);</text><text fill="#AAAAAA" font-family="sans-serif" font-size="11" lengthAdjust="spacing" textLength="2.86" x="39.5" y="1948.9844">&#160;</text><text fill="#AAAAAA" font-family="sans-serif" font-size="11" lengthAdjust="spacing" textLength="75.3495" x="39.5" y="1963.9663">State Updates:</text><text fill="#AAAAAA" font-family="sans-serif" font-size="11" lengthAdjust="spacing" textLength="2.86" x="39.5" y="1978.9481">&#160;</text><rect fill="#F24D5C" height="6" style="stroke:#C82930;stroke-width:1;" width="6" x="30.5" y="1987.6621"/><text fill="#AAAAAA" font-family="sans-serif" font-size="11" lengthAdjust="spacing" textLength="158.8279" x="39.5" y="1993.93">void UpdateThreadStatusList();</text><rect fill="#F24D5C" height="6" style="stroke:#C82930;stroke-width:1;" width="6" x="30.5" y="2002.644"/><text fill="#AAAAAA" font-family="sans-serif" font-size="11" lengthAdjust="spacing" textLength="158.8499" x="39.5" y="2008.9119">void UpdateThreadStatusBar();</text><text fill="#AAAAAA" font-family="sans-serif" font-size="11" lengthAdjust="spacing" textLength="2.86" x="39.5" y="2023.8938">&#160;</text><text fill="#AAAAAA" font-family="sans-serif" font-size="11" lengthAdjust="spacing" textLength="99.4503" x="39.5" y="2038.8757">Simulation Control:</text><text fill="#AAAAAA" font-family="sans-serif" font-size="11" lengthAdjust="spacing" textLength="2.86" x="39.5" y="2053.8576">&#160;</text><rect fill="#F24D5C" height="6" style="stroke:#C82930;stroke-width:1;" width="6" x="30.5" y="2062.5715"/><text fill="#AAAAAA" font-family="sans-serif" font-size="11" lengthAdjust="spacing" textLength="58.9486" x="39.5" y="2068.8395">void Start();</text><rect fill="#F24D5C" height="6" style="stroke:#C82930;stroke-width:1;" width="6" x="30.5" y="2077.5534"/><text fill="#AAAAAA" font-family="sans-serif" font-size="11" lengthAdjust="spacing" textLength="65.3505" x="39.5" y="2083.8214">void Pause();</text><rect fill="#F24D5C" height="6" style="stroke:#C82930;stroke-width:1;" width="6" x="30.5" y="2092.5353"/><text fill="#AAAAAA" font-family="sans-serif" font-size="11" lengthAdjust="spacing" textLength="75.8554" x="39.5" y="2098.8032">void Resume();</text><rect fill="#F24D5C" height="6" style="stroke:#C82930;stroke-width:1;" width="6" x="30.5" y="2107.5172"/><text fill="#AAAAAA" font-family="sans-serif" font-size="11" lengthAdjust="spacing" textLength="57.6836" x="39.5" y="2113.7851">void Stop();</text><text fill="#AAAAAA" font-family="sans-serif" font-size="11" lengthAdjust="spacing" textLength="2.86" x="39.5" y="2128.767">&#160;</text><text fill="#AAAAAA" font-family="sans-serif" font-size="11" lengthAdjust="spacing" textLength="33.0548" x="39.5" y="2143.7489">Utility:</text><text fill="#AAAAAA" font-family="sans-serif" font-size="11" lengthAdjust="spacing" textLength="2.86" x="39.5" y="2158.7308">&#160;</text><rect fill="#F24D5C" height="6" style="stroke:#C82930;stroke-width:1;" width="6" x="30.5" y="2167.4447"/><text fill="#AAAAAA" font-family="sans-serif" font-size="11" lengthAdjust="spacing" textLength="616.0508" x="39.5" y="2173.7127">void AddWorkshops(Func&lt;Drawable, Movable, ThreadController, UInt32, Boolean&gt; generator, String countDescription);</text><rect fill="#F24D5C" height="6" style="stroke:#C82930;stroke-width:1;" width="6" x="30.5" y="2182.4266"/><text fill="#AAAAAA" font-family="sans-serif" font-size="11" lengthAdjust="spacing" textLength="170.5758" x="39.5" y="2188.6946">void Dispose(Boolean disposing);</text><text fill="#AAAAAA" font-family="sans-serif" font-size="11" lengthAdjust="spacing" textLength="2.86" x="39.5" y="2203.6765">&#160;</text><text fill="#AAAAAA" font-family="sans-serif" font-size="11" lengthAdjust="spacing" textLength="83.9514" x="39.5" y="2218.6583">Timers Callback:</text><text fill="#AAAAAA" font-family="sans-serif" font-size="11" lengthAdjust="spacing" textLength="2.86" x="39.5" y="2233.6402">&#160;</text><rect fill="#F24D5C" height="6" style="stroke:#C82930;stroke-width:1;" width="6" x="30.5" y="2242.3542"/><text fill="#AAAAAA" font-family="sans-serif" font-size="11" lengthAdjust="spacing" textLength="335.7286" x="39.5" y="2248.6221">void &lt;SetupMovementTimer&gt;b__7_0(Object sender, EventArgs e);</text><rect fill="#F24D5C" height="6" style="stroke:#C82930;stroke-width:1;" width="6" x="30.5" y="2257.336"/><text fill="#AAAAAA" font-family="sans-serif" font-size="11" lengthAdjust="spacing" textLength="323.1447" x="39.5" y="2263.604">void &lt;SetupUiStatusTimer&gt;b__8_0(Object sender, EventArgs e);</text><line style="stroke:#1B1B1B;stroke-width:1;" x1="23.5" x2="319.2061" y1="1615.1149" y2="1615.1149"/><text fill="#AAAAAA" font-family="sans-serif" font-size="11" lengthAdjust="spacing" textLength="45.6387" x="319.2061" y="1618.8828">Methods</text><line style="stroke:#1B1B1B;stroke-width:1;" x1="364.8448" x2="660.5508" y1="1615.1149" y2="1615.1149"/></g><!--reverse link AboutForm to ObjectMovementSimulationForm--><g class="link" data-entity-1="AboutForm" data-entity-2="ObjectMovementSimulationForm" data-source-line="155" data-uid="lnk5" id="link_AboutForm_ObjectMovementSimulationForm"><path codeLine="155" d="M342,706.952 C342,726.372 342,740.262 342,760.492" fill="none" id="AboutForm-backto-ObjectMovementSimulationForm" style="stroke:#FFFFFF;stroke-width:1;stroke-dasharray:7.0,7.0;"/><polygon fill="#FFFFFF" points="342,700.952,338,709.952,342,705.952,346,709.952,342,700.952" style="stroke:#FFFFFF;stroke-width:1;"/></g><!--SRC=[dLZRRjiu47ttLx1OOEi5ac3RFkoYDWBu5jH5d0GhEzqtWPOcDck954ZAJRV8l- -Gr5ro7TKlbcRE38T3pk5GR_GUOY0Imb22KfSXbOTjbC9Wy7PsE_6yXJSO115LYdnX_4R8M6sMLvEjIBLv6VmO4FnTNf8R1b6eyCaAfbInW2pv4sAePe9_73WWyRHaV4TsKgJ97OrXL9T74EXKWdGggziioKp4YU30jVfeHPdDSYQufeo39461o1tUqYr4P0UefL4M2GPokutgY4IAhpYe6R2bEu9KNJOqrNiXM-8GL21PehjCGgO2baGOR4kbWGPxQBjx0cfoeMvI7XYVD6BwkqLbi6cgjU147AQQ5wPCwQbuFc7ib2MM7sf9i89YW4StUroMOlL-A8tB6RpWed3zuJs9wLSXCzpe58RnivY4wc1VOF8zjG9CSxcf5aTSN_A9yZ12P17Jes2Xou4_YrXm6DvlpLo80Xw2l71c4xbJ1FuOLMtga_RDltK0OTD5aQWAfkxM-hrbJn1y3oB8OllDZJDdAX4AXbCX8g3SR0LynxJcTalEDCC5-gzUAjQuq45H14EqU-ceIXVqIXoneBdsM9n6rk7F2dLEDSNoYapT8RJCgjaguxcat-WsWciIPa-gki_6E9PJnpXeMxtUIw2XAL9fHf3NH3Saghl6NrFVQnQZFCvcQz_ggfHvkCbILLEjWAU6QX8Ivq-55IwFK-dygJgRHmRVilYTtrnOCfYHEW-gVCxLEB-jC9MPI2Oa5cCko04Fb1kUm4JZrh0lTJfGvOAQ9RJ2B7rbw8uI5FdTpdIf8IxJMQ0otYYcYP5BNU6G0kX1GYNLGbQmkUZTw9pR1vegwEls_Lct_u1Auzv-FupEPq4aNLxpH18LFhM4fz7mp7GFUBcwVOpCmlN09sP5Uk2bJNMlW4JI0xw7g0-SchQZ0v-HRrQZo6PfN64oz_u9wnP98IUWKZJgWhdwFGihIxaAj4Z71gvqEqemen1t_bT9fLBLo7uOHvKGcyVcQdddtqy_BsPhpv_TR-xMfyxNrUJV9l348OjCx85EasBCuqzEeGh26gsgRDm5s5GvUPYVVoSETclM8gdN7_9r-voDVjM-e9rVTP3nIq_pxXBlwQIxxdiwEK46lUVJmH0zVNHIQqyVtLpIDw-Dezptm3HI42xHy7csftpNRYPFxvIEvi9V2LowkKYnkUgCpUfFkgns4_u3jbAwQM-57Rsi2GF89Wdnhr6IJhXkHDiezpPeIikABvjJaZM3zI5iiJSysW9ko5nHDfa6jrWnqaOpS_Efkv-4uHSX3sel4ZKqDwIYqpK9FRg7PlTwaP7f1SaQ-UliTedTnKL-Vmr4olMyl0VM8pjx4x2ygCYCHj6M1eTwrECsnrvlVVyl_yzNRx5ncuMDYx_FkNWfFmUG-U9XSJTVp9Rcqq3NHm4olhfwzRtaVm00]--></g></svg>